<mxfile host="app.diagrams.net" modified="2020-06-19T08:20:38.222Z" agent="5.0 (Macintosh; Intel Mac OS X 10_15_5) AppleWebKit/537.36 (KHTML, like Gecko) Chrome/81.0.4044.138 Safari/537.36" etag="ZdTDL-JhoEvnMHProjys" version="13.2.6" type="github">
  <diagram id="o-6-cCsUGdHhvSfyFfvp" name="Page-1">
    <mxGraphModel dx="1186" dy="685" grid="1" gridSize="10" guides="1" tooltips="1" connect="1" arrows="1" fold="1" page="1" pageScale="1" pageWidth="1169" pageHeight="827" math="0" shadow="0">
      <root>
        <mxCell id="0" />
        <mxCell id="1" parent="0" />
        <mxCell id="mXt_HiQNrAfsVmuwmWfo-2" value="Server #2 or even on Server #1" style="rounded=0;whiteSpace=wrap;html=1;shadow=0;verticalAlign=top;align=left;labelBackgroundColor=none;fillColor=#ffe6cc;strokeColor=#d79b00;dashed=1;direction=west;comic=0;opacity=60;" vertex="1" parent="1">
          <mxGeometry x="560" y="40" width="180" height="160" as="geometry" />
        </mxCell>
        <mxCell id="mXt_HiQNrAfsVmuwmWfo-1" value="Server #1" style="rounded=0;whiteSpace=wrap;html=1;shadow=0;verticalAlign=top;align=left;labelBackgroundColor=none;fillColor=#dae8fc;strokeColor=#6c8ebf;dashed=1;direction=west;comic=0;opacity=50;" vertex="1" parent="1">
          <mxGeometry x="40" y="40" width="400" height="160" as="geometry" />
        </mxCell>
        <mxCell id="l2yK3TH7M7PTGYh5xhXL-1" value="cardano-node" style="rounded=1;whiteSpace=wrap;html=1;fillColor=#f8cecc;strokeColor=#b85450;" parent="1" vertex="1">
          <mxGeometry x="295" y="90" width="120" height="60" as="geometry" />
        </mxCell>
        <mxCell id="l2yK3TH7M7PTGYh5xhXL-2" value="cardano-node" style="rounded=1;whiteSpace=wrap;html=1;fillColor=#f8cecc;strokeColor=#b85450;" parent="1" vertex="1">
          <mxGeometry x="590" y="90" width="120" height="60" as="geometry" />
        </mxCell>
        <mxCell id="l2yK3TH7M7PTGYh5xhXL-3" value="cardano-cli&lt;br&gt;cardano-explorer&lt;br&gt;&lt;span&gt;cardano-wallet etc.&lt;/span&gt;" style="rounded=1;whiteSpace=wrap;html=1;align=center;fillColor=#fff2cc;strokeColor=#d6b656;" parent="1" vertex="1">
          <mxGeometry x="50" y="90" width="120" height="60" as="geometry" />
        </mxCell>
        <mxCell id="l2yK3TH7M7PTGYh5xhXL-8" value="chain-sync&lt;br&gt;block fetch&lt;br&gt;tx-submission" style="text;html=1;strokeColor=none;fillColor=none;align=left;verticalAlign=middle;whiteSpace=wrap;rounded=0;" parent="1" vertex="1">
          <mxGeometry x="460" y="135" width="90" height="40" as="geometry" />
        </mxCell>
        <mxCell id="l2yK3TH7M7PTGYh5xhXL-9" value="chain-sync&lt;br&gt;local-tx-submission" style="text;html=1;strokeColor=none;fillColor=none;align=left;verticalAlign=middle;whiteSpace=wrap;rounded=0;" parent="1" vertex="1">
          <mxGeometry x="180" y="140" width="110" height="30" as="geometry" />
        </mxCell>
        <mxCell id="l2yK3TH7M7PTGYh5xhXL-11" value="Full Node" style="text;html=1;strokeColor=none;fillColor=none;align=center;verticalAlign=middle;whiteSpace=wrap;rounded=0;fontSize=12;fontStyle=1" parent="1" vertex="1">
          <mxGeometry x="310" y="70" width="90" height="20" as="geometry" />
        </mxCell>
        <mxCell id="l2yK3TH7M7PTGYh5xhXL-12" value="Client" style="text;html=1;strokeColor=none;fillColor=none;align=center;verticalAlign=middle;whiteSpace=wrap;rounded=0;fontSize=12;fontStyle=1" parent="1" vertex="1">
          <mxGeometry x="80" y="70" width="40" height="20" as="geometry" />
        </mxCell>
        <mxCell id="l2yK3TH7M7PTGYh5xhXL-14" value="" style="rounded=0;whiteSpace=wrap;html=1;fillColor=#ffe6cc;strokeColor=#d79b00;glass=0;shadow=0;comic=0;" parent="1" vertex="1">
          <mxGeometry x="320" y="500" width="170" height="280" as="geometry" />
        </mxCell>
        <mxCell id="l2yK3TH7M7PTGYh5xhXL-16" value="Subscribtion manager" style="rounded=0;whiteSpace=wrap;html=1;shadow=0;glass=0;comic=0;fontSize=12;align=center;fillColor=#f5f5f5;strokeColor=#666666;fontColor=#333333;verticalAlign=top;" parent="1" vertex="1">
          <mxGeometry x="325" y="510" width="160" height="110" as="geometry" />
        </mxCell>
        <mxCell id="l2yK3TH7M7PTGYh5xhXL-17" value="" style="rounded=0;whiteSpace=wrap;html=1;fillColor=#ffe6cc;strokeColor=#d79b00;glass=0;shadow=0;comic=0;" parent="1" vertex="1">
          <mxGeometry x="690" y="500" width="190" height="280" as="geometry" />
        </mxCell>
        <mxCell id="l2yK3TH7M7PTGYh5xhXL-18" value="Server&#39;s accept loop" style="rounded=0;whiteSpace=wrap;html=1;shadow=0;glass=0;comic=0;fontSize=12;align=center;fillColor=#f5f5f5;strokeColor=#666666;fontColor=#333333;verticalAlign=top;" parent="1" vertex="1">
          <mxGeometry x="705" y="510" width="165" height="110" as="geometry" />
        </mxCell>
        <mxCell id="l2yK3TH7M7PTGYh5xhXL-19" value="" style="endArrow=classic;html=1;fontSize=12;exitX=1;exitY=0.25;exitDx=0;exitDy=0;entryX=0;entryY=0.5;entryDx=0;entryDy=0;" parent="1" source="l2yK3TH7M7PTGYh5xhXL-27" target="l2yK3TH7M7PTGYh5xhXL-22" edge="1">
          <mxGeometry width="50" height="50" relative="1" as="geometry">
            <mxPoint x="810" y="580" as="sourcePoint" />
            <mxPoint x="815" y="538" as="targetPoint" />
          </mxGeometry>
        </mxCell>
        <mxCell id="l2yK3TH7M7PTGYh5xhXL-20" value="Connect to the peer" style="edgeLabel;html=1;align=center;verticalAlign=middle;resizable=0;points=[];fontSize=12;" parent="l2yK3TH7M7PTGYh5xhXL-19" vertex="1" connectable="0">
          <mxGeometry x="-0.104" relative="1" as="geometry">
            <mxPoint x="-20.659999999999997" y="-17.89" as="offset" />
          </mxGeometry>
        </mxCell>
        <mxCell id="l2yK3TH7M7PTGYh5xhXL-22" value="Handshake mini protocol" style="rounded=0;whiteSpace=wrap;html=1;shadow=0;glass=0;comic=0;fontSize=12;align=center;fillColor=#f8cecc;strokeColor=#b85450;opacity=60;" parent="1" vertex="1">
          <mxGeometry x="710" y="540" width="155" height="30" as="geometry" />
        </mxCell>
        <mxCell id="l2yK3TH7M7PTGYh5xhXL-23" value="Start multiplexer" style="rounded=0;whiteSpace=wrap;html=1;shadow=0;glass=0;comic=0;fontSize=12;align=center;fillColor=#f8cecc;strokeColor=#b85450;opacity=70;" parent="1" vertex="1">
          <mxGeometry x="710" y="580" width="155" height="30" as="geometry" />
        </mxCell>
        <mxCell id="l2yK3TH7M7PTGYh5xhXL-25" value="Read topology file" style="rounded=0;whiteSpace=wrap;html=1;shadow=0;glass=0;comic=0;fontSize=12;opacity=70;align=center;fillColor=#f8cecc;strokeColor=#b85450;" parent="1" vertex="1">
          <mxGeometry x="335" y="540" width="140" height="30" as="geometry" />
        </mxCell>
        <mxCell id="l2yK3TH7M7PTGYh5xhXL-27" value="Connect to peer" style="rounded=0;whiteSpace=wrap;html=1;shadow=0;glass=0;comic=0;fontSize=12;opacity=70;align=center;fillColor=#f8cecc;strokeColor=#b85450;" parent="1" vertex="1">
          <mxGeometry x="335" y="580" width="140" height="30" as="geometry" />
        </mxCell>
        <mxCell id="mXt_HiQNrAfsVmuwmWfo-3" value="Full Node" style="text;html=1;strokeColor=none;fillColor=none;align=center;verticalAlign=middle;whiteSpace=wrap;rounded=0;fontSize=12;fontStyle=1" vertex="1" parent="1">
          <mxGeometry x="600" y="70" width="90" height="20" as="geometry" />
        </mxCell>
        <mxCell id="mXt_HiQNrAfsVmuwmWfo-4" value="" style="shape=flexArrow;endArrow=classic;startArrow=classic;html=1;strokeWidth=1;fontSize=12;width=14;startSize=5;entryX=0;entryY=0.5;entryDx=0;entryDy=0;exitX=1;exitY=0.5;exitDx=0;exitDy=0;" edge="1" parent="1" source="l2yK3TH7M7PTGYh5xhXL-1" target="l2yK3TH7M7PTGYh5xhXL-2">
          <mxGeometry width="50" height="50" relative="1" as="geometry">
            <mxPoint x="430" y="220" as="sourcePoint" />
            <mxPoint x="610" y="200" as="targetPoint" />
          </mxGeometry>
        </mxCell>
        <mxCell id="mXt_HiQNrAfsVmuwmWfo-6" value="Node to Node&lt;br&gt;TCP/IP" style="edgeLabel;html=1;align=center;verticalAlign=middle;resizable=0;points=[];fontSize=12;labelBackgroundColor=none;fontStyle=3" vertex="1" connectable="0" parent="mXt_HiQNrAfsVmuwmWfo-4">
          <mxGeometry x="-0.0667" y="3" relative="1" as="geometry">
            <mxPoint x="8" y="-27" as="offset" />
          </mxGeometry>
        </mxCell>
        <mxCell id="mXt_HiQNrAfsVmuwmWfo-5" value="" style="shape=flexArrow;endArrow=classic;html=1;strokeWidth=1;fontSize=12;exitX=1;exitY=0.5;exitDx=0;exitDy=0;entryX=0;entryY=0.5;entryDx=0;entryDy=0;width=16;endSize=6;" edge="1" parent="1" source="l2yK3TH7M7PTGYh5xhXL-3" target="l2yK3TH7M7PTGYh5xhXL-1">
          <mxGeometry width="50" height="50" relative="1" as="geometry">
            <mxPoint x="275" y="270" as="sourcePoint" />
            <mxPoint x="325" y="220" as="targetPoint" />
          </mxGeometry>
        </mxCell>
        <mxCell id="mXt_HiQNrAfsVmuwmWfo-7" value="Node to Client&lt;br&gt;Unix socket" style="edgeLabel;html=1;align=center;verticalAlign=middle;resizable=0;points=[];fontSize=12;labelBackgroundColor=none;fontStyle=3" vertex="1" connectable="0" parent="mXt_HiQNrAfsVmuwmWfo-5">
          <mxGeometry x="-0.2462" y="-1" relative="1" as="geometry">
            <mxPoint x="11" y="-31" as="offset" />
          </mxGeometry>
        </mxCell>
        <mxCell id="mXt_HiQNrAfsVmuwmWfo-10" value="Assumes some trust" style="text;html=1;strokeColor=none;fillColor=none;align=center;verticalAlign=middle;whiteSpace=wrap;rounded=0;shadow=0;dashed=1;comic=0;labelBackgroundColor=none;fontSize=12;opacity=60;fontStyle=2" vertex="1" parent="1">
          <mxGeometry x="175" y="50" width="120" height="20" as="geometry" />
        </mxCell>
        <mxCell id="mXt_HiQNrAfsVmuwmWfo-11" value="Does not assume&lt;br&gt;any trust" style="text;html=1;strokeColor=none;fillColor=none;align=center;verticalAlign=middle;whiteSpace=wrap;rounded=0;shadow=0;dashed=1;comic=0;labelBackgroundColor=none;fontSize=12;opacity=60;fontStyle=2" vertex="1" parent="1">
          <mxGeometry x="440" y="50" width="120" height="20" as="geometry" />
        </mxCell>
      </root>
    </mxGraphModel>
  </diagram>
</mxfile>
